<?xml version="1.0" encoding="UTF-8"?>
<svg viewBox="0 0 149 22" version="1.1" xmlns="http://www.w3.org/2000/svg" xmlns:xlink="http://www.w3.org/1999/xlink">
    <!-- Generator: Sketch 54.1 (76490) - https://sketchapp.com -->
    <title>Limnia Logo</title>
    <desc>Created with Sketch.</desc>
    <g id="Page-1" stroke="none" stroke-width="1" fill-rule="evenodd" opacity="0.801804315">
        <g id="Landing_Summer" transform="translate(-48.000000, -52.000000)">
            <g id="Hero">
                <g id="Header-">
                    <g id="Limnia-Logo" transform="translate(48.000000, 52.000000)">
                        <polyline id="Fill-1" points="29.8181534 0.132361596 29.7651498 21.6212795 34.8657055 21.6212795 34.8127019 0.132361596 29.8181534 0.132361596"></polyline>
                        <polyline id="Fill-2" points="82.6479166 0.132361596 82.6479166 0.93037145 94.8067829 21.6847721 100.566506 21.6847721 100.566506 20.8867622 88.2904599 0.132361596 82.6479166 0.132361596"></polyline>
                        <polyline id="Fill-3" points="95.3201901 0.655663534 100.306684 8.88077184 101.077575 0.655663534 101.077575 0.132361596 95.3201901 0.132361596 95.3201901 0.655663534"></polyline>
                        <polyline id="Fill-4" points="81.8063548 20.8667928 81.8063548 21.6212795 87.6713053 21.6212795 87.6713053 21.0882489 82.8607104 12.7095294 81.8063548 20.8667928"></polyline>
                        <path d="M50.2668841,0.132361596 C50.2668841,0.132361596 55.106579,15.5966507 56.8946704,21.6212795 L57.2833634,21.6212795 L59.6620291,13.3395911 C59.6620291,13.3395911 56.6862936,3.65466496 55.5776353,0.132361596 L50.2668841,0.132361596" id="Fill-5"></path>
                        <polyline id="Fill-6" points="62.8321111 0.132361596 62.7354575 0.490019525 64.0784748 21.6212795 69.4318368 21.6212795 67.9698212 0.132361596 62.8321111 0.132361596"></polyline>
                        <polyline id="Fill-7" points="47.0554905 21.1507174 47.0554905 21.6212795 51.9598809 21.6212795 51.9598809 21.1507174 48.9025614 13.9527555 47.0554905 21.1507174"></polyline>
                        <path d="M5.59031916,1.96110218 L5.58979952,1.96110218 L5.58979952,0.132361596 L0.170183075,0.132361596 L0.170183075,1.96110218 L0.169663433,1.96110218 C0.318021503,7.16263128 0.316202752,14.1201917 0.163687538,19.7264861 L0.16394736,19.7264861 L0.114321455,21.6212795 L6.48878187,21.6212795 L5.64955846,19.1212583 C5.50821557,13.6253078 5.44715752,6.97804189 5.59031916,1.96110218" id="Fill-8"></path>
                        <polyline id="Fill-9" points="11.2315633 21.6212795 17.2487692 21.6212795 17.7858202 13.2233587 17.3643898 13.2233587 11.2315633 21.6212795"></polyline>
                        <polyline id="Fill-10" points="113.900025 0.132361596 113.847021 21.6212795 118.947577 21.6212795 118.894573 0.132361596 113.900025 0.132361596"></polyline>
                        <path d="M140.554852,0.132361596 L137.722278,0.643118625 L136.410439,4.32492155 L142.526897,21.6212795 L148.274928,21.6212795 C148.274928,21.6212795 142.82803,6.75940204 140.554852,0.132361596" id="Fill-11"></path>
                        <polyline id="Fill-12" points="132.039982 15.4747859 129.557387 21.0882489 129.557387 21.6212795 134.169219 21.6212795 134.169219 21.0882489 132.636532 18.4179753 132.039982 15.4747859"></polyline>
                    </g>
                </g>
            </g>
        </g>
    </g>
</svg>
